<?xml version="1.0" encoding="iso-8859-1"?>
<!-- Generator: Adobe Illustrator 25.0.0, SVG Export Plug-In . SVG Version: 6.00 Build 0)  -->
<svg version="1.1" id="Layer_1" xmlns="http://www.w3.org/2000/svg" xmlns:xlink="http://www.w3.org/1999/xlink" x="0px" y="0px"
	 viewBox="0 0 800 800" style="enable-background:new 0 0 800 800;" xml:space="preserve">
<g id="SVGRepo_bgCarrier">
</g>
<g id="SVGRepo_tracerCarrier">
</g>
<g id="SVGRepo_iconCarrier">
	<path style="fill:#03004D;" d="M258.376,453.27c-1.275,0-2.569-0.391-3.678-1.206C190.529,405.228,152.22,329.727,152.22,250.108
		c0-137.75,112.072-249.822,249.822-249.822c137.744,0,249.822,112.072,249.822,249.822c0,79.613-38.314,155.103-102.491,201.931
		c-2.783,2.05-6.698,1.427-8.734-1.355c-2.027-2.786-1.417-6.688,1.364-8.722c60.969-44.498,97.369-116.219,97.369-191.855
		c0.003-130.866-106.464-237.331-237.33-237.331c-130.864,0-237.331,106.467-237.331,237.331c0,75.648,36.394,147.373,97.355,191.88
		c3.447,0.004,6.239,2.802,6.235,6.249c-0.004,3.447-2.802,6.239-6.249,6.235C260.729,454.47,259.443,454.05,258.376,453.27
		L258.376,453.27z M745.548,799.714H58.537c-3.448,0.002-6.245-2.792-6.247-6.241c0-0.002,0-0.003,0-0.005v-87.437
		c0-53.613,27.769-74.141,79.008-93.294l13.034-4.83c7.392-2.733,15.797-5.83,24.806-9.222c3.208-1.183,6.825,0.416,8.044,3.659
		c1.206,3.232-0.427,6.831-3.653,8.052c-9.027,3.391-17.461,6.487-24.872,9.233l-12.991,4.819
		c-48.023,17.931-70.884,34.717-70.884,81.583v81.192h674.517v-81.192c0-46.866-22.858-63.652-70.883-81.583l-14.139-5.244
		c-7.785-2.858-15.559-5.745-23.322-8.661c-3.222-1.208-4.855-4.806-3.662-8.041c1.22-3.231,4.819-4.842,8.053-3.647
		c7.742,2.899,15.491,5.778,23.248,8.636l14.2,5.244c51.233,19.153,78.995,39.681,78.995,93.294v87.438
		c0.004,3.446-2.786,6.243-6.231,6.247C745.555,799.714,745.551,799.714,745.548,799.714L745.548,799.714z"/>
	<g>
		<path style="fill:#03004D;" d="M402.036,574.875c-3.451-0.017-6.235-2.828-6.218-6.279c0.014-2.978,2.129-5.532,5.052-6.102
			l131.158-24.981c3.452-0.598,6.659,1.597,7.306,4.964c0.648,3.388-1.574,6.659-4.961,7.307c-0.001,0-0.003,0-0.004,0.001
			l-131.156,24.981C402.816,574.837,402.419,574.875,402.036,574.875L402.036,574.875z M433.269,649.822h-62.456
			c-2.365-0.002-4.526-1.338-5.586-3.452l-12.491-24.983c-1.543-3.083-0.296-6.833,2.787-8.376c0.002-0.001,0.005-0.002,0.007-0.003
			c3.086-1.54,6.836-0.29,8.38,2.794l10.766,21.53h54.741l10.758-21.53c1.545-3.083,5.294-4.333,8.38-2.794
			c3.084,1.544,4.335,5.294,2.795,8.38l-12.491,24.983C437.796,648.483,435.634,649.818,433.269,649.822L433.269,649.822z"/>
		<path style="fill:#03004D;" d="M358.322,712.277c-0.775,0-1.561-0.147-2.317-0.439c-3.2-1.286-4.758-4.919-3.483-8.123
			l24.981-62.456c1.275-3.209,4.953-4.77,8.119-3.487c3.2,1.286,4.758,4.919,3.483,8.123l-24.983,62.456
			C363.172,710.72,360.876,712.275,358.322,712.277z M445.76,712.277c-2.556-0.002-4.854-1.557-5.808-3.928l-24.981-62.456
			c-1.275-3.197,0.294-6.831,3.487-8.123c3.173-1.269,6.845,0.28,8.123,3.487l24.984,62.456c1.263,3.207-0.295,6.832-3.491,8.123
			C447.338,712.127,446.552,712.276,445.76,712.277L445.76,712.277z M334.267,774.733c-1.446,0.001-2.847-0.499-3.966-1.416
			l-75.878-62.456c-1.992-1.649-2.767-4.351-1.952-6.805l11.142-33.425l-71.678-59.723c-2.611-2.182-3.001-6.05-0.878-8.709
			l49.964-62.456c2.159-2.67,6.081-3.134,8.783-0.975c2.691,2.158,3.128,6.087,0.977,8.783l-46.141,57.673l70.244,58.527
			c1.973,1.652,2.735,4.343,1.92,6.784l-11.131,33.398l72.567,59.723c2.661,2.2,3.042,6.138,0.853,8.808
			C337.903,773.902,336.134,774.733,334.267,774.733L334.267,774.733z"/>
		<path style="fill:#03004D;" d="M370.819,774.733c-2.273,0.003-4.367-1.232-5.464-3.222L240.444,546.672
			c-1.677-3-0.591-6.806,2.428-8.491c3.019-1.671,6.82-0.578,8.491,2.441l0,0l124.911,224.839c1.677,3.002,0.591,6.806-2.428,8.491
			C372.886,774.489,371.844,774.733,370.819,774.733z M469.814,774.733c-1.803,0-3.586-0.781-4.831-2.269
			c-2.183-2.672-1.801-6.605,0.855-8.808l72.567-59.723l-11.136-33.398c-0.807-2.442-0.045-5.13,1.925-6.784l70.239-58.527
			L553.3,547.55c-2.147-2.698-1.71-6.623,0.977-8.783c2.689-2.156,6.617-1.723,8.773,0.966c0.002,0.003,0.005,0.006,0.007,0.009
			l49.967,62.456c2.12,2.66,1.73,6.526-0.878,8.709l-71.677,59.723l11.148,33.425c0.807,2.453,0.034,5.151-1.95,6.805
			l-75.877,62.456C472.669,774.234,471.263,774.734,469.814,774.733L469.814,774.733z"/>
		<path style="fill:#03004D;" d="M433.269,774.733c-1.059,0.005-2.101-0.264-3.025-0.781c-3.019-1.671-4.111-5.472-2.441-8.491l0,0
			l124.911-224.839c1.684-3.025,5.491-4.111,8.491-2.441c3.025,1.683,4.111,5.491,2.439,8.491L438.736,771.511
			C437.635,773.5,435.542,774.733,433.269,774.733L433.269,774.733z M320.856,624.839c-2.173,0.006-4.192-1.122-5.325-2.977
			c-1.804-2.936-0.89-6.779,2.044-8.587l81.192-49.964c2.98-1.739,6.805-0.732,8.544,2.248c1.68,2.88,0.802,6.573-1.995,8.388
			l-81.191,49.966C323.144,624.521,322.011,624.842,320.856,624.839z"/>
	</g>
	<g id="SVGRepo_iconCarrier_1_">
		
			<path style="fill:none;stroke:#03004D;stroke-width:15;stroke-linecap:round;stroke-linejoin:round;stroke-miterlimit:133.3333;" d="
			M337.267,254.24l37.013,37.013l92.532-92.532"/>
		<path style="fill:none;stroke:#03004D;stroke-width:15;stroke-linecap:round;stroke-miterlimit:133.3333;" d="M236.02,264.929
			c-6.031-12.618-6.031-27.286,0-39.903c2.608-5.456,7.054-10.673,15.947-21.108c3.539-4.153,5.309-6.23,6.796-8.448
			c3.408-5.084,5.773-10.793,6.958-16.798c0.517-2.619,0.734-5.339,1.168-10.779c1.091-13.667,1.636-20.5,3.65-26.202
			c4.657-13.186,15.03-23.558,28.216-28.216c5.701-2.014,12.535-2.559,26.202-3.65c5.44-0.434,8.159-0.651,10.779-1.168
			c6.004-1.185,11.714-3.55,16.798-6.958c2.218-1.486,4.295-3.256,8.448-6.796c10.435-8.893,15.652-13.339,21.108-15.947
			c12.618-6.031,27.286-6.031,39.903,0c5.456,2.607,10.673,7.054,21.108,15.947c4.153,3.539,6.229,5.309,8.448,6.796
			c5.084,3.408,10.793,5.773,16.796,6.958c2.621,0.517,5.339,0.734,10.78,1.168c13.667,1.091,20.5,1.636,26.201,3.65
			c13.186,4.658,23.559,15.03,28.217,28.216 M270.538,348.263c4.657,13.186,15.03,23.559,28.216,28.217
			c5.701,2.013,12.535,2.558,26.202,3.649c5.44,0.433,8.159,0.651,10.779,1.168c6.004,1.186,11.714,3.55,16.798,6.958
			c2.218,1.486,4.295,3.255,8.448,6.796c10.435,8.892,15.652,13.339,21.108,15.947c12.618,6.029,27.286,6.029,39.903,0
			c5.456-2.608,10.673-7.055,21.108-15.947c4.153-3.54,6.229-5.31,8.448-6.796c5.084-3.409,10.793-5.772,16.796-6.958
			c2.621-0.516,5.339-0.735,10.78-1.168c13.667-1.092,20.5-1.636,26.201-3.649c13.186-4.658,23.559-15.031,28.217-28.217
			c2.013-5.702,2.558-12.534,3.649-26.201c0.433-5.439,0.65-8.159,1.168-10.778c1.184-6.005,3.549-11.715,6.958-16.798
			c1.486-2.219,3.255-4.295,6.796-8.448c8.892-10.436,13.339-15.653,15.947-21.108c6.029-12.618,6.029-27.286,0-39.903"/>
	</g>
</g>
</svg>
