<?xml version="1.0" encoding="iso-8859-1"?>
<!-- Uploaded to: SVG Repo, www.svgrepo.com, Generator: SVG Repo Mixer Tools -->
<svg fill="#000000" height="800px" width="800px" version="1.1" id="Layer_1" xmlns="http://www.w3.org/2000/svg" xmlns:xlink="http://www.w3.org/1999/xlink" 
	 viewBox="0 0 512.252 512.252" xml:space="preserve">
<g>
	<g>
		<g>
			<path d="M125.819,288.662c6.72,14.72,16.213,27.947,27.84,39.147c4.16,4.16,10.88,4.16,15.04,0c4.16-4.16,4.16-10.88,0-15.04
				c-0.107-0.107-0.213-0.213-0.32-0.32c-9.707-9.28-17.6-20.373-23.253-32.533c-6.507-13.973-10.347-30.187-11.52-48.213
				c-0.747-13.227-0.213-22.933,1.813-31.787c1.6-7.467,7.04-18.56,14.4-27.947c-0.96,16.64,0.96,37.013,12.053,55.787
				c3.093,5.013,9.707,6.507,14.72,3.413c4.48-2.773,6.293-8.427,4.16-13.333c-7.36-16.213-10.027-25.813-7.573-43.52
				c3.093-21.12,13.653-40.427,29.867-54.293l1.92-1.6c6.613-5.547,13.44-11.307,19.307-18.24c9.28-10.667,20.267-27.733,20.053-48
				c0.213-6.72-0.64-13.44-2.347-19.84c16.32,9.28,30.507,21.76,41.6,36.8c13.333,17.707,20.48,39.36,20.373,61.547
				c-0.107,8-0.96,15.893-2.667,23.68c-1.707,5.653,1.493,11.627,7.147,13.333s11.627-1.493,13.333-7.147
				c4.053-10.347,8.853-18.347,14.72-24.747c5.653-6.08,12.267-11.307,19.52-15.36c-3.307,13.013-5.013,26.88-2.987,41.28
				c2.027,14.4,8,26.88,13.973,38.933l0.853,1.707c5.44,11.413,8.64,20.8,9.92,29.44c1.387,9.067,1.387,19.2,0,31.893
				c-2.347,19.627-9.92,37.12-21.227,49.28c-4.16,4.16-4.053,10.987,0.107,15.04c4.16,4.16,10.987,4.053,15.04-0.107
				c0.107-0.107,0.213-0.213,0.427-0.427c14.507-15.467,24-37.227,26.88-61.44c1.6-14.613,1.6-26.56-0.107-37.547
				c-1.707-10.987-5.44-22.187-11.84-35.52l-0.853-1.92c-5.333-10.987-10.453-21.44-11.947-32.64
				c-2.773-18.773,3.2-37.973,9.387-54.187c2.133-5.547-0.64-11.627-6.187-13.76c-2.453-0.96-5.12-0.96-7.467,0
				c-12.693,4.693-30.72,12.48-45.12,26.453c-2.347-21.973-10.667-42.88-23.893-60.693c-18.133-24.64-44.267-43.84-76.053-55.573
				c-5.547-2.027-11.627,0.747-13.76,6.293c-1.067,2.987-0.853,6.293,0.747,9.067c7.893,13.76,11.413,24.96,11.093,35.733
				c0.107,14.08-8,26.453-14.933,34.453c-4.8,5.653-10.56,10.56-16.747,15.787l-1.92,1.707c-10.24,8.853-18.88,19.52-25.28,31.467
				c-1.173,0.107-2.453,0.32-3.52,0.853c-23.68,10.133-41.813,40.96-45.76,59.093c-3.2,13.76-2.88,27.413-2.24,37.76
				C113.766,253.569,118.246,272.342,125.819,288.662z"/>
			<path d="M452.646,369.409l-3.52-15.787c-1.813-8.107-6.827-15.04-13.973-19.2c-6.827-3.947-15.04-4.8-22.507-2.453
				L78.992,438.529c-14.293,4.587-22.933,19.947-19.52,34.987l3.52,15.787c1.813,8.107,6.827,15.04,13.973,19.2
				c6.827,3.947,15.04,4.8,22.507,2.453l333.653-106.56C447.419,399.809,456.059,384.449,452.646,369.409z M426.726,384.022
				L93.072,490.476c-1.813,0.533-3.84,0.32-5.44-0.64c-1.92-1.173-3.307-3.093-3.84-5.333l-3.52-15.787
				c-0.96-4.267,1.28-8.64,5.12-9.92l333.547-106.453c1.813-0.64,3.84-0.32,5.44,0.64c1.92,1.173,3.307,3.093,3.84,5.333
				l3.52,15.787C432.806,378.476,430.566,382.742,426.726,384.022z"/>
			<path d="M79.099,407.382l24.747,8.213c5.547,1.813,11.627-1.173,13.44-6.827c1.813-5.547-1.173-11.627-6.827-13.44l-24.747-8.213
				c-4.053-1.387-6.613-6.4-5.547-11.307l3.627-16.64c0.533-2.56,2.027-4.8,4.267-6.08c1.6-0.96,3.52-1.173,5.333-0.533
				l100.48,33.28c5.547,1.813,11.627-1.173,13.44-6.827c1.813-5.547-1.173-11.627-6.827-13.44l-100.587-33.28
				c-7.573-2.56-15.787-1.707-22.613,2.24c-7.467,4.373-12.693,11.627-14.507,20.16l-3.307,16.64
				C56.059,386.796,64.699,402.582,79.099,407.382z"/>
			<path d="M433.019,435.542l-24.747-8.213c-5.547-1.813-11.627,1.173-13.44,6.827c-1.813,5.547,1.173,11.627,6.827,13.44
				l24.747,8.213c4.053,1.387,6.613,6.4,5.547,11.307l-3.627,16.64c-0.533,2.56-2.027,4.8-4.267,6.08
				c-1.6,0.96-3.52,1.173-5.333,0.533l-100.587-33.28c-5.547-1.813-11.627,1.173-13.44,6.827c-1.813,5.547,1.173,11.627,6.827,13.44
				l100.587,33.28c7.573,2.56,15.787,1.707,22.613-2.24c7.467-4.373,12.693-11.627,14.507-20.16l3.627-16.747
				C456.059,456.129,447.419,440.236,433.019,435.542z"/>
		</g>
	</g>
</g>
</svg>